%TF.GenerationSoftware,KiCad,Pcbnew,9.0.3*%
%TF.CreationDate,2025-07-11T23:11:04-05:00*%
%TF.ProjectId,Watch_PCB,57617463-685f-4504-9342-2e6b69636164,rev?*%
%TF.SameCoordinates,Original*%
%TF.FileFunction,Copper,L3,Inr*%
%TF.FilePolarity,Positive*%
%FSLAX46Y46*%
G04 Gerber Fmt 4.6, Leading zero omitted, Abs format (unit mm)*
G04 Created by KiCad (PCBNEW 9.0.3) date 2025-07-11 23:11:04*
%MOMM*%
%LPD*%
G01*
G04 APERTURE LIST*
G04 Aperture macros list*
%AMRoundRect*
0 Rectangle with rounded corners*
0 $1 Rounding radius*
0 $2 $3 $4 $5 $6 $7 $8 $9 X,Y pos of 4 corners*
0 Add a 4 corners polygon primitive as box body*
4,1,4,$2,$3,$4,$5,$6,$7,$8,$9,$2,$3,0*
0 Add four circle primitives for the rounded corners*
1,1,$1+$1,$2,$3*
1,1,$1+$1,$4,$5*
1,1,$1+$1,$6,$7*
1,1,$1+$1,$8,$9*
0 Add four rect primitives between the rounded corners*
20,1,$1+$1,$2,$3,$4,$5,0*
20,1,$1+$1,$4,$5,$6,$7,0*
20,1,$1+$1,$6,$7,$8,$9,0*
20,1,$1+$1,$8,$9,$2,$3,0*%
G04 Aperture macros list end*
%TA.AperFunction,ComponentPad*%
%ADD10C,1.700000*%
%TD*%
%TA.AperFunction,ComponentPad*%
%ADD11RoundRect,0.250000X-0.600000X-0.600000X0.600000X-0.600000X0.600000X0.600000X-0.600000X0.600000X0*%
%TD*%
%TA.AperFunction,ViaPad*%
%ADD12C,0.600000*%
%TD*%
G04 APERTURE END LIST*
D10*
%TO.N,Net-(J3-PIEZO_SIG)*%
%TO.C,J3*%
X70250000Y-76250000D03*
%TO.N,GND*%
X66250000Y-76250000D03*
X62250000Y-76250000D03*
D11*
%TO.N,+3.3V*%
X58250000Y-76250000D03*
%TD*%
D12*
%TO.N,+3.3V*%
X55200000Y-73200000D03*
X57100000Y-65200000D03*
X53250000Y-61700000D03*
X67300000Y-73300000D03*
X67300000Y-71600000D03*
%TD*%
%TA.AperFunction,Conductor*%
%TO.N,+3.3V*%
G36*
X59553535Y-62269685D02*
G01*
X59599290Y-62322489D01*
X59609234Y-62391647D01*
X59589598Y-62442891D01*
X59556359Y-62492635D01*
X59556354Y-62492644D01*
X59507320Y-62611024D01*
X59507318Y-62611029D01*
X59500401Y-62645805D01*
X59468015Y-62707716D01*
X59407299Y-62742289D01*
X59337529Y-62738548D01*
X59309897Y-62724717D01*
X59308132Y-62723538D01*
X59308124Y-62723533D01*
X59189744Y-62674499D01*
X59189738Y-62674497D01*
X59064071Y-62649500D01*
X59064069Y-62649500D01*
X58935931Y-62649500D01*
X58935929Y-62649500D01*
X58810261Y-62674497D01*
X58810255Y-62674499D01*
X58691875Y-62723533D01*
X58691866Y-62723538D01*
X58585331Y-62794723D01*
X58585327Y-62794726D01*
X58494726Y-62885327D01*
X58494723Y-62885331D01*
X58423538Y-62991866D01*
X58423533Y-62991875D01*
X58374499Y-63110255D01*
X58374497Y-63110261D01*
X58352116Y-63222777D01*
X58319731Y-63284688D01*
X58259015Y-63319262D01*
X58189245Y-63315521D01*
X58183046Y-63313146D01*
X58089744Y-63274499D01*
X58089738Y-63274497D01*
X57964071Y-63249500D01*
X57964069Y-63249500D01*
X57835931Y-63249500D01*
X57835929Y-63249500D01*
X57710261Y-63274497D01*
X57710255Y-63274499D01*
X57591875Y-63323533D01*
X57591866Y-63323538D01*
X57485331Y-63394723D01*
X57485327Y-63394726D01*
X57394726Y-63485327D01*
X57394723Y-63485331D01*
X57323538Y-63591866D01*
X57323533Y-63591875D01*
X57274499Y-63710255D01*
X57274497Y-63710261D01*
X57249500Y-63835928D01*
X57249500Y-63835931D01*
X57249500Y-63964069D01*
X57249500Y-63964071D01*
X57249499Y-63964071D01*
X57274497Y-64089738D01*
X57274499Y-64089744D01*
X57323533Y-64208124D01*
X57323538Y-64208133D01*
X57394723Y-64314668D01*
X57394726Y-64314672D01*
X57485327Y-64405273D01*
X57485331Y-64405276D01*
X57591866Y-64476461D01*
X57591872Y-64476464D01*
X57591873Y-64476465D01*
X57710256Y-64525501D01*
X57710260Y-64525501D01*
X57710261Y-64525502D01*
X57835928Y-64550500D01*
X57835931Y-64550500D01*
X57964071Y-64550500D01*
X58048615Y-64533682D01*
X58089744Y-64525501D01*
X58208127Y-64476465D01*
X58314669Y-64405276D01*
X58405276Y-64314669D01*
X58476465Y-64208127D01*
X58525501Y-64089744D01*
X58547883Y-63977221D01*
X58580267Y-63915312D01*
X58640983Y-63880738D01*
X58710753Y-63884477D01*
X58716936Y-63886846D01*
X58810256Y-63925501D01*
X58810260Y-63925501D01*
X58810261Y-63925502D01*
X58935928Y-63950500D01*
X58935931Y-63950500D01*
X59064071Y-63950500D01*
X59148615Y-63933682D01*
X59189744Y-63925501D01*
X59308127Y-63876465D01*
X59414669Y-63805276D01*
X59505276Y-63714669D01*
X59576465Y-63608127D01*
X59625501Y-63489744D01*
X59632419Y-63454963D01*
X59664803Y-63393055D01*
X59725518Y-63358480D01*
X59795288Y-63362219D01*
X59822927Y-63376054D01*
X59824687Y-63377230D01*
X59824693Y-63377233D01*
X59824694Y-63377234D01*
X59943077Y-63426270D01*
X59943081Y-63426270D01*
X59943082Y-63426271D01*
X60068749Y-63451269D01*
X60068752Y-63451269D01*
X60196892Y-63451269D01*
X60281436Y-63434451D01*
X60322565Y-63426270D01*
X60440948Y-63377234D01*
X60547490Y-63306045D01*
X60638097Y-63215438D01*
X60709286Y-63108896D01*
X60758322Y-62990513D01*
X60779245Y-62885331D01*
X60783321Y-62864840D01*
X60783321Y-62736697D01*
X60758323Y-62611030D01*
X60758322Y-62611029D01*
X60758322Y-62611025D01*
X60709286Y-62492642D01*
X60709285Y-62492641D01*
X60709282Y-62492635D01*
X60676044Y-62442891D01*
X60655166Y-62376213D01*
X60673650Y-62308833D01*
X60725629Y-62262143D01*
X60779146Y-62250000D01*
X62267643Y-62250000D01*
X62334682Y-62269685D01*
X62380437Y-62322489D01*
X62390381Y-62391647D01*
X62361356Y-62455203D01*
X62336534Y-62477102D01*
X62235331Y-62544723D01*
X62235327Y-62544726D01*
X62144726Y-62635327D01*
X62144723Y-62635331D01*
X62073538Y-62741866D01*
X62073533Y-62741875D01*
X62024499Y-62860255D01*
X62024497Y-62860261D01*
X61999500Y-62985928D01*
X61999500Y-62985931D01*
X61999500Y-63114069D01*
X61999500Y-63114071D01*
X61999499Y-63114071D01*
X62024497Y-63239738D01*
X62024499Y-63239744D01*
X62073533Y-63358124D01*
X62073538Y-63358133D01*
X62144723Y-63464668D01*
X62144726Y-63464672D01*
X62235327Y-63555273D01*
X62235331Y-63555276D01*
X62341866Y-63626461D01*
X62341872Y-63626464D01*
X62341873Y-63626465D01*
X62460256Y-63675501D01*
X62460260Y-63675501D01*
X62460261Y-63675502D01*
X62585928Y-63700500D01*
X62585931Y-63700500D01*
X62714071Y-63700500D01*
X62798615Y-63683682D01*
X62839744Y-63675501D01*
X62958127Y-63626465D01*
X63056111Y-63560993D01*
X63122786Y-63540117D01*
X63190166Y-63558601D01*
X63193842Y-63560963D01*
X63291873Y-63626465D01*
X63410256Y-63675501D01*
X63410260Y-63675501D01*
X63410261Y-63675502D01*
X63535928Y-63700500D01*
X63626026Y-63700500D01*
X63693065Y-63720185D01*
X63738820Y-63772989D01*
X63748293Y-63829839D01*
X63749500Y-63829839D01*
X63749500Y-63835931D01*
X63749500Y-63964069D01*
X63749500Y-63964071D01*
X63749499Y-63964071D01*
X63774497Y-64089738D01*
X63774499Y-64089744D01*
X63823533Y-64208124D01*
X63823538Y-64208133D01*
X63894723Y-64314668D01*
X63894726Y-64314672D01*
X63985327Y-64405273D01*
X63985331Y-64405276D01*
X64091866Y-64476461D01*
X64091872Y-64476464D01*
X64091873Y-64476465D01*
X64210256Y-64525501D01*
X64210260Y-64525501D01*
X64210261Y-64525502D01*
X64335928Y-64550500D01*
X64335931Y-64550500D01*
X64464071Y-64550500D01*
X64548615Y-64533682D01*
X64589744Y-64525501D01*
X64708127Y-64476465D01*
X64814669Y-64405276D01*
X64861630Y-64358315D01*
X64922953Y-64324829D01*
X64992644Y-64329813D01*
X65048578Y-64371684D01*
X65070928Y-64421799D01*
X65074496Y-64439734D01*
X65074499Y-64439744D01*
X65123533Y-64558124D01*
X65123538Y-64558133D01*
X65194723Y-64664668D01*
X65194726Y-64664672D01*
X65285327Y-64755273D01*
X65285331Y-64755276D01*
X65391866Y-64826461D01*
X65391868Y-64826462D01*
X65391873Y-64826465D01*
X65412812Y-64835138D01*
X65413538Y-64835439D01*
X65467941Y-64879281D01*
X65490005Y-64945575D01*
X65472725Y-65013274D01*
X65421588Y-65060884D01*
X65413538Y-65064561D01*
X65391873Y-65073535D01*
X65391866Y-65073538D01*
X65285331Y-65144723D01*
X65285327Y-65144726D01*
X65194726Y-65235327D01*
X65194723Y-65235331D01*
X65123538Y-65341866D01*
X65123533Y-65341875D01*
X65074499Y-65460255D01*
X65074497Y-65460261D01*
X65049500Y-65585928D01*
X65049500Y-65585931D01*
X65049500Y-65714069D01*
X65049500Y-65714071D01*
X65049499Y-65714071D01*
X65074497Y-65839738D01*
X65074499Y-65839744D01*
X65123533Y-65958124D01*
X65123538Y-65958133D01*
X65194723Y-66064668D01*
X65194726Y-66064672D01*
X65285327Y-66155273D01*
X65285331Y-66155276D01*
X65391866Y-66226461D01*
X65391872Y-66226464D01*
X65391873Y-66226465D01*
X65510256Y-66275501D01*
X65510260Y-66275501D01*
X65510261Y-66275502D01*
X65635928Y-66300500D01*
X65635931Y-66300500D01*
X65764071Y-66300500D01*
X65848615Y-66283682D01*
X65889744Y-66275501D01*
X66008127Y-66226465D01*
X66114669Y-66155276D01*
X66205276Y-66064669D01*
X66276465Y-65958127D01*
X66325501Y-65839744D01*
X66350500Y-65714069D01*
X66350500Y-65585931D01*
X66350500Y-65585928D01*
X66325502Y-65460261D01*
X66325501Y-65460260D01*
X66325501Y-65460256D01*
X66276465Y-65341873D01*
X66276464Y-65341872D01*
X66276461Y-65341866D01*
X66205276Y-65235331D01*
X66205273Y-65235327D01*
X66114672Y-65144726D01*
X66114668Y-65144723D01*
X66008133Y-65073538D01*
X66008120Y-65073531D01*
X65986463Y-65064561D01*
X65932059Y-65020720D01*
X65909994Y-64954426D01*
X65927273Y-64886727D01*
X65978410Y-64839116D01*
X65986463Y-64835439D01*
X66008120Y-64826468D01*
X66008120Y-64826467D01*
X66008127Y-64826465D01*
X66114669Y-64755276D01*
X66205276Y-64664669D01*
X66276465Y-64558127D01*
X66325501Y-64439744D01*
X66341699Y-64358315D01*
X66350500Y-64314071D01*
X66350500Y-64185928D01*
X66325502Y-64060261D01*
X66325501Y-64060260D01*
X66325501Y-64060256D01*
X66285659Y-63964069D01*
X66276466Y-63941875D01*
X66276461Y-63941866D01*
X66205276Y-63835331D01*
X66205273Y-63835327D01*
X66114672Y-63744726D01*
X66114668Y-63744723D01*
X66008133Y-63673538D01*
X66008124Y-63673533D01*
X65889744Y-63624499D01*
X65889738Y-63624497D01*
X65764071Y-63599500D01*
X65764069Y-63599500D01*
X65635931Y-63599500D01*
X65635929Y-63599500D01*
X65510261Y-63624497D01*
X65510255Y-63624499D01*
X65391875Y-63673533D01*
X65391866Y-63673538D01*
X65285331Y-63744723D01*
X65285326Y-63744727D01*
X65238367Y-63791686D01*
X65177044Y-63825170D01*
X65107352Y-63820185D01*
X65051419Y-63778313D01*
X65029070Y-63728196D01*
X65025502Y-63710261D01*
X65025501Y-63710260D01*
X65025501Y-63710256D01*
X64976465Y-63591873D01*
X64976464Y-63591872D01*
X64976461Y-63591866D01*
X64905276Y-63485331D01*
X64905273Y-63485327D01*
X64814672Y-63394726D01*
X64814668Y-63394723D01*
X64708133Y-63323538D01*
X64708124Y-63323533D01*
X64589744Y-63274499D01*
X64589738Y-63274497D01*
X64464071Y-63249500D01*
X64464069Y-63249500D01*
X64373974Y-63249500D01*
X64306935Y-63229815D01*
X64261180Y-63177011D01*
X64251707Y-63120161D01*
X64250500Y-63120161D01*
X64250500Y-62985928D01*
X64225502Y-62860261D01*
X64225501Y-62860260D01*
X64225501Y-62860256D01*
X64176465Y-62741873D01*
X64176464Y-62741872D01*
X64176461Y-62741866D01*
X64105276Y-62635331D01*
X64105273Y-62635327D01*
X64014672Y-62544726D01*
X64014668Y-62544723D01*
X63913466Y-62477102D01*
X63868661Y-62423490D01*
X63859954Y-62354165D01*
X63890108Y-62291138D01*
X63949551Y-62254418D01*
X63982357Y-62250000D01*
X71375500Y-62250000D01*
X71442539Y-62269685D01*
X71488294Y-62322489D01*
X71499500Y-62374000D01*
X71499500Y-75290970D01*
X71479815Y-75358009D01*
X71427011Y-75403764D01*
X71357853Y-75413708D01*
X71294297Y-75384683D01*
X71281222Y-75371516D01*
X71280107Y-75370211D01*
X71129786Y-75219890D01*
X70957820Y-75094951D01*
X70768414Y-74998444D01*
X70768413Y-74998443D01*
X70768412Y-74998443D01*
X70566243Y-74932754D01*
X70566241Y-74932753D01*
X70566240Y-74932753D01*
X70404957Y-74907208D01*
X70356287Y-74899500D01*
X70143713Y-74899500D01*
X70095042Y-74907208D01*
X69933760Y-74932753D01*
X69731585Y-74998444D01*
X69542179Y-75094951D01*
X69370213Y-75219890D01*
X69219890Y-75370213D01*
X69094951Y-75542179D01*
X68998444Y-75731585D01*
X68932753Y-75933760D01*
X68899500Y-76143713D01*
X68899500Y-76356286D01*
X68932409Y-76564069D01*
X68932754Y-76566243D01*
X68943722Y-76600000D01*
X68998444Y-76768414D01*
X69094951Y-76957820D01*
X69219890Y-77129786D01*
X69370213Y-77280109D01*
X69542179Y-77405048D01*
X69542181Y-77405049D01*
X69542184Y-77405051D01*
X69731588Y-77501557D01*
X69933757Y-77567246D01*
X70143713Y-77600500D01*
X70143714Y-77600500D01*
X70356286Y-77600500D01*
X70356287Y-77600500D01*
X70566243Y-77567246D01*
X70768412Y-77501557D01*
X70957816Y-77405051D01*
X71053784Y-77335327D01*
X71129786Y-77280109D01*
X71129788Y-77280106D01*
X71129792Y-77280104D01*
X71280104Y-77129792D01*
X71280107Y-77129787D01*
X71281214Y-77128493D01*
X71281758Y-77128137D01*
X71283549Y-77126347D01*
X71283925Y-77126723D01*
X71339723Y-77090302D01*
X71409591Y-77089807D01*
X71468635Y-77127164D01*
X71498110Y-77190512D01*
X71499500Y-77209029D01*
X71499500Y-84460678D01*
X71479815Y-84527717D01*
X71427011Y-84573472D01*
X71357853Y-84583416D01*
X71294297Y-84554391D01*
X71275182Y-84533564D01*
X71222227Y-84460678D01*
X71203828Y-84435354D01*
X71064646Y-84296172D01*
X70905405Y-84180476D01*
X70730029Y-84091117D01*
X70542826Y-84030290D01*
X70348422Y-83999500D01*
X70348417Y-83999500D01*
X70151583Y-83999500D01*
X70151578Y-83999500D01*
X69957173Y-84030290D01*
X69769970Y-84091117D01*
X69594594Y-84180476D01*
X69503741Y-84246485D01*
X69435354Y-84296172D01*
X69435352Y-84296174D01*
X69435351Y-84296174D01*
X69296174Y-84435351D01*
X69296174Y-84435352D01*
X69296172Y-84435354D01*
X69277773Y-84460678D01*
X69180476Y-84594594D01*
X69091117Y-84769970D01*
X69030290Y-84957173D01*
X68999500Y-85151577D01*
X68999500Y-85348422D01*
X69030290Y-85542826D01*
X69091117Y-85730029D01*
X69129435Y-85805231D01*
X69180476Y-85905405D01*
X69296172Y-86064646D01*
X69435354Y-86203828D01*
X69533564Y-86275182D01*
X69576229Y-86330513D01*
X69582208Y-86400126D01*
X69549602Y-86461921D01*
X69488763Y-86496278D01*
X69460678Y-86499500D01*
X67039322Y-86499500D01*
X66972283Y-86479815D01*
X66926528Y-86427011D01*
X66916584Y-86357853D01*
X66945609Y-86294297D01*
X66966436Y-86275182D01*
X67064646Y-86203828D01*
X67203828Y-86064646D01*
X67319524Y-85905405D01*
X67408884Y-85730025D01*
X67469709Y-85542826D01*
X67500500Y-85348422D01*
X67500500Y-85151577D01*
X67469709Y-84957173D01*
X67408882Y-84769970D01*
X67357611Y-84669345D01*
X67319524Y-84594595D01*
X67203828Y-84435354D01*
X67064646Y-84296172D01*
X66905405Y-84180476D01*
X66730029Y-84091117D01*
X66542826Y-84030290D01*
X66348422Y-83999500D01*
X66348417Y-83999500D01*
X66151583Y-83999500D01*
X66151578Y-83999500D01*
X65957173Y-84030290D01*
X65769970Y-84091117D01*
X65594594Y-84180476D01*
X65503741Y-84246485D01*
X65435354Y-84296172D01*
X65435352Y-84296174D01*
X65435351Y-84296174D01*
X65296174Y-84435351D01*
X65296174Y-84435352D01*
X65296172Y-84435354D01*
X65277773Y-84460678D01*
X65180476Y-84594594D01*
X65091117Y-84769970D01*
X65030290Y-84957173D01*
X64999500Y-85151577D01*
X64999500Y-85348422D01*
X65030290Y-85542826D01*
X65091117Y-85730029D01*
X65129435Y-85805231D01*
X65180476Y-85905405D01*
X65296172Y-86064646D01*
X65435354Y-86203828D01*
X65533564Y-86275182D01*
X65576229Y-86330513D01*
X65582208Y-86400126D01*
X65549602Y-86461921D01*
X65488763Y-86496278D01*
X65460678Y-86499500D01*
X63039322Y-86499500D01*
X62972283Y-86479815D01*
X62926528Y-86427011D01*
X62916584Y-86357853D01*
X62945609Y-86294297D01*
X62966436Y-86275182D01*
X63064646Y-86203828D01*
X63203828Y-86064646D01*
X63319524Y-85905405D01*
X63408884Y-85730025D01*
X63469709Y-85542826D01*
X63500500Y-85348422D01*
X63500500Y-85151577D01*
X63469709Y-84957173D01*
X63408882Y-84769970D01*
X63357611Y-84669345D01*
X63319524Y-84594595D01*
X63203828Y-84435354D01*
X63064646Y-84296172D01*
X62905405Y-84180476D01*
X62730029Y-84091117D01*
X62542826Y-84030290D01*
X62348422Y-83999500D01*
X62348417Y-83999500D01*
X62151583Y-83999500D01*
X62151578Y-83999500D01*
X61957173Y-84030290D01*
X61769970Y-84091117D01*
X61594594Y-84180476D01*
X61503741Y-84246485D01*
X61435354Y-84296172D01*
X61435352Y-84296174D01*
X61435351Y-84296174D01*
X61296174Y-84435351D01*
X61296174Y-84435352D01*
X61296172Y-84435354D01*
X61277773Y-84460678D01*
X61180476Y-84594594D01*
X61091117Y-84769970D01*
X61030290Y-84957173D01*
X60999500Y-85151577D01*
X60999500Y-85348422D01*
X61030290Y-85542826D01*
X61091117Y-85730029D01*
X61129435Y-85805231D01*
X61180476Y-85905405D01*
X61296172Y-86064646D01*
X61435354Y-86203828D01*
X61533564Y-86275182D01*
X61576229Y-86330513D01*
X61582208Y-86400126D01*
X61549602Y-86461921D01*
X61488763Y-86496278D01*
X61460678Y-86499500D01*
X59039322Y-86499500D01*
X58972283Y-86479815D01*
X58926528Y-86427011D01*
X58916584Y-86357853D01*
X58945609Y-86294297D01*
X58966436Y-86275182D01*
X59064646Y-86203828D01*
X59203828Y-86064646D01*
X59319524Y-85905405D01*
X59408884Y-85730025D01*
X59469709Y-85542826D01*
X59500500Y-85348422D01*
X59500500Y-85151577D01*
X59469709Y-84957173D01*
X59408882Y-84769970D01*
X59357611Y-84669345D01*
X59319524Y-84594595D01*
X59203828Y-84435354D01*
X59064646Y-84296172D01*
X58905405Y-84180476D01*
X58730029Y-84091117D01*
X58542826Y-84030290D01*
X58348422Y-83999500D01*
X58348417Y-83999500D01*
X58151583Y-83999500D01*
X58151578Y-83999500D01*
X57957173Y-84030290D01*
X57769970Y-84091117D01*
X57594594Y-84180476D01*
X57503741Y-84246485D01*
X57435354Y-84296172D01*
X57435352Y-84296174D01*
X57435351Y-84296174D01*
X57296174Y-84435351D01*
X57296174Y-84435352D01*
X57296172Y-84435354D01*
X57277773Y-84460678D01*
X57180476Y-84594594D01*
X57091117Y-84769970D01*
X57030290Y-84957173D01*
X56999500Y-85151577D01*
X56999500Y-85348422D01*
X57030290Y-85542826D01*
X57091117Y-85730029D01*
X57129435Y-85805231D01*
X57180476Y-85905405D01*
X57296172Y-86064646D01*
X57435354Y-86203828D01*
X57533564Y-86275182D01*
X57576229Y-86330513D01*
X57582208Y-86400126D01*
X57549602Y-86461921D01*
X57488763Y-86496278D01*
X57460678Y-86499500D01*
X52624500Y-86499500D01*
X52557461Y-86479815D01*
X52511706Y-86427011D01*
X52500500Y-86375500D01*
X52500500Y-85810768D01*
X52520185Y-85743729D01*
X52572989Y-85697974D01*
X52642147Y-85688030D01*
X52705703Y-85717055D01*
X52727602Y-85741877D01*
X52769931Y-85805228D01*
X52873768Y-85909065D01*
X52873772Y-85909068D01*
X52995866Y-85990649D01*
X52995872Y-85990652D01*
X52995873Y-85990653D01*
X53131546Y-86046851D01*
X53275570Y-86075499D01*
X53275574Y-86075500D01*
X53275575Y-86075500D01*
X53422426Y-86075500D01*
X53422427Y-86075499D01*
X53566454Y-86046851D01*
X53702127Y-85990653D01*
X53824228Y-85909068D01*
X53928068Y-85805228D01*
X54009653Y-85683127D01*
X54065851Y-85547454D01*
X54094500Y-85403425D01*
X54094500Y-85256575D01*
X54094499Y-85256570D01*
X54635500Y-85256570D01*
X54635500Y-85403429D01*
X54664147Y-85547446D01*
X54664149Y-85547454D01*
X54720345Y-85683124D01*
X54720350Y-85683133D01*
X54801931Y-85805227D01*
X54801934Y-85805231D01*
X54905768Y-85909065D01*
X54905772Y-85909068D01*
X55027866Y-85990649D01*
X55027872Y-85990652D01*
X55027873Y-85990653D01*
X55163546Y-86046851D01*
X55307570Y-86075499D01*
X55307574Y-86075500D01*
X55307575Y-86075500D01*
X55454426Y-86075500D01*
X55454427Y-86075499D01*
X55598454Y-86046851D01*
X55734127Y-85990653D01*
X55856228Y-85909068D01*
X55960068Y-85805228D01*
X56041653Y-85683127D01*
X56097851Y-85547454D01*
X56126500Y-85403425D01*
X56126500Y-85256575D01*
X56097851Y-85112546D01*
X56041653Y-84976873D01*
X56041652Y-84976872D01*
X56041649Y-84976866D01*
X55960068Y-84854772D01*
X55960065Y-84854768D01*
X55856231Y-84750934D01*
X55856227Y-84750931D01*
X55734133Y-84669350D01*
X55734124Y-84669345D01*
X55598454Y-84613149D01*
X55598446Y-84613147D01*
X55454429Y-84584500D01*
X55454425Y-84584500D01*
X55307575Y-84584500D01*
X55307570Y-84584500D01*
X55163553Y-84613147D01*
X55163545Y-84613149D01*
X55027875Y-84669345D01*
X55027866Y-84669350D01*
X54905772Y-84750931D01*
X54905768Y-84750934D01*
X54801934Y-84854768D01*
X54801931Y-84854772D01*
X54720350Y-84976866D01*
X54720345Y-84976875D01*
X54664149Y-85112545D01*
X54664147Y-85112553D01*
X54635500Y-85256570D01*
X54094499Y-85256570D01*
X54065851Y-85112546D01*
X54009653Y-84976873D01*
X54009652Y-84976872D01*
X54009649Y-84976866D01*
X53928068Y-84854772D01*
X53928065Y-84854768D01*
X53824231Y-84750934D01*
X53824227Y-84750931D01*
X53702133Y-84669350D01*
X53702124Y-84669345D01*
X53566454Y-84613149D01*
X53566446Y-84613147D01*
X53422429Y-84584500D01*
X53422425Y-84584500D01*
X53275575Y-84584500D01*
X53275570Y-84584500D01*
X53131553Y-84613147D01*
X53131545Y-84613149D01*
X52995875Y-84669345D01*
X52995866Y-84669350D01*
X52873772Y-84750931D01*
X52873768Y-84750934D01*
X52769934Y-84854768D01*
X52769931Y-84854772D01*
X52727602Y-84918122D01*
X52673989Y-84962927D01*
X52604664Y-84971634D01*
X52541637Y-84941479D01*
X52504918Y-84882036D01*
X52500500Y-84849231D01*
X52500500Y-83534234D01*
X52520185Y-83467195D01*
X52572989Y-83421440D01*
X52642147Y-83411496D01*
X52659432Y-83415337D01*
X52785928Y-83440500D01*
X52785931Y-83440500D01*
X52914071Y-83440500D01*
X53009887Y-83421440D01*
X53039744Y-83415501D01*
X53158127Y-83366465D01*
X53264669Y-83295276D01*
X53355276Y-83204669D01*
X53426465Y-83098127D01*
X53475501Y-82979744D01*
X53500500Y-82854069D01*
X53500500Y-82725931D01*
X53500500Y-82725928D01*
X53475502Y-82600261D01*
X53475501Y-82600260D01*
X53475501Y-82600256D01*
X53426465Y-82481873D01*
X53426464Y-82481872D01*
X53426461Y-82481866D01*
X53355276Y-82375331D01*
X53355273Y-82375327D01*
X53264672Y-82284726D01*
X53264668Y-82284723D01*
X53158133Y-82213538D01*
X53158124Y-82213533D01*
X53039744Y-82164499D01*
X53039738Y-82164497D01*
X52914071Y-82139500D01*
X52914069Y-82139500D01*
X52785931Y-82139500D01*
X52785929Y-82139500D01*
X52654282Y-82165687D01*
X52654043Y-82164486D01*
X52590615Y-82165045D01*
X52531506Y-82127790D01*
X52501922Y-82064493D01*
X52500500Y-82045765D01*
X52500500Y-80994234D01*
X52520185Y-80927195D01*
X52572989Y-80881440D01*
X52642147Y-80871496D01*
X52659432Y-80875337D01*
X52785928Y-80900500D01*
X52785931Y-80900500D01*
X52914071Y-80900500D01*
X53009887Y-80881440D01*
X53039744Y-80875501D01*
X53158127Y-80826465D01*
X53264669Y-80755276D01*
X53355276Y-80664669D01*
X53426465Y-80558127D01*
X53475501Y-80439744D01*
X53500500Y-80314069D01*
X53500500Y-80185931D01*
X53500500Y-80185928D01*
X53475502Y-80060261D01*
X53475501Y-80060260D01*
X53475501Y-80060256D01*
X53426465Y-79941873D01*
X53426464Y-79941872D01*
X53426461Y-79941866D01*
X53355276Y-79835331D01*
X53355273Y-79835327D01*
X53264672Y-79744726D01*
X53264668Y-79744723D01*
X53158133Y-79673538D01*
X53158124Y-79673533D01*
X53039744Y-79624499D01*
X53039738Y-79624497D01*
X52914071Y-79599500D01*
X52914069Y-79599500D01*
X52785931Y-79599500D01*
X52785929Y-79599500D01*
X52654282Y-79625687D01*
X52654043Y-79624486D01*
X52590615Y-79625045D01*
X52531506Y-79587790D01*
X52501922Y-79524493D01*
X52500500Y-79505765D01*
X52500500Y-76564071D01*
X55349499Y-76564071D01*
X55374497Y-76689738D01*
X55374499Y-76689744D01*
X55423533Y-76808124D01*
X55423538Y-76808133D01*
X55494723Y-76914668D01*
X55494726Y-76914672D01*
X55585327Y-77005273D01*
X55585334Y-77005278D01*
X55610207Y-77021899D01*
X55655012Y-77075512D01*
X55663718Y-77144837D01*
X55633562Y-77207864D01*
X55610207Y-77228101D01*
X55585334Y-77244721D01*
X55585327Y-77244726D01*
X55494726Y-77335327D01*
X55494723Y-77335331D01*
X55423538Y-77441866D01*
X55423533Y-77441875D01*
X55374499Y-77560255D01*
X55374497Y-77560261D01*
X55349500Y-77685928D01*
X55349500Y-77685931D01*
X55349500Y-77814069D01*
X55349500Y-77814071D01*
X55349499Y-77814071D01*
X55374497Y-77939738D01*
X55374499Y-77939744D01*
X55423533Y-78058124D01*
X55423538Y-78058133D01*
X55494723Y-78164668D01*
X55494726Y-78164672D01*
X55585327Y-78255273D01*
X55585334Y-78255278D01*
X55610207Y-78271899D01*
X55655012Y-78325512D01*
X55663718Y-78394837D01*
X55633562Y-78457864D01*
X55610207Y-78478101D01*
X55585334Y-78494721D01*
X55585327Y-78494726D01*
X55494726Y-78585327D01*
X55494723Y-78585331D01*
X55423538Y-78691866D01*
X55423533Y-78691875D01*
X55374499Y-78810255D01*
X55374497Y-78810261D01*
X55349500Y-78935928D01*
X55349500Y-78935931D01*
X55349500Y-79064069D01*
X55349500Y-79064071D01*
X55349499Y-79064071D01*
X55374497Y-79189738D01*
X55374499Y-79189744D01*
X55423533Y-79308124D01*
X55423538Y-79308133D01*
X55494723Y-79414668D01*
X55494726Y-79414672D01*
X55585327Y-79505273D01*
X55585331Y-79505276D01*
X55691866Y-79576461D01*
X55691872Y-79576464D01*
X55691873Y-79576465D01*
X55810256Y-79625501D01*
X55810260Y-79625501D01*
X55810261Y-79625502D01*
X55935928Y-79650500D01*
X55935931Y-79650500D01*
X56064071Y-79650500D01*
X56148615Y-79633682D01*
X56189744Y-79625501D01*
X56308127Y-79576465D01*
X56414669Y-79505276D01*
X56505276Y-79414669D01*
X56576465Y-79308127D01*
X56625501Y-79189744D01*
X56650500Y-79064069D01*
X56650500Y-78935931D01*
X56650500Y-78935928D01*
X56625502Y-78810261D01*
X56625501Y-78810260D01*
X56625501Y-78810256D01*
X56576465Y-78691873D01*
X56576464Y-78691872D01*
X56576461Y-78691866D01*
X56505276Y-78585331D01*
X56505273Y-78585327D01*
X56414672Y-78494726D01*
X56414668Y-78494723D01*
X56389793Y-78478102D01*
X56344988Y-78424490D01*
X56336281Y-78355165D01*
X56366435Y-78292137D01*
X56389793Y-78271898D01*
X56399235Y-78265588D01*
X56414669Y-78255276D01*
X56505276Y-78164669D01*
X56576465Y-78058127D01*
X56625501Y-77939744D01*
X56650500Y-77814069D01*
X56650500Y-77685931D01*
X56650500Y-77685928D01*
X56625502Y-77560261D01*
X56625501Y-77560260D01*
X56625501Y-77560256D01*
X56576465Y-77441873D01*
X56576464Y-77441872D01*
X56576461Y-77441866D01*
X56505276Y-77335331D01*
X56505273Y-77335327D01*
X56414672Y-77244726D01*
X56414668Y-77244723D01*
X56389793Y-77228102D01*
X56344988Y-77174490D01*
X56336281Y-77105165D01*
X56366435Y-77042137D01*
X56389793Y-77021898D01*
X56399235Y-77015588D01*
X56414669Y-77005276D01*
X56505276Y-76914669D01*
X56515087Y-76899986D01*
X56900001Y-76899986D01*
X56910494Y-77002697D01*
X56965641Y-77169119D01*
X56965643Y-77169124D01*
X57057684Y-77318345D01*
X57181654Y-77442315D01*
X57330875Y-77534356D01*
X57330880Y-77534358D01*
X57497302Y-77589505D01*
X57497309Y-77589506D01*
X57600019Y-77599999D01*
X57999999Y-77599999D01*
X58500000Y-77599999D01*
X58899972Y-77599999D01*
X58899986Y-77599998D01*
X59002697Y-77589505D01*
X59169119Y-77534358D01*
X59169124Y-77534356D01*
X59318345Y-77442315D01*
X59442315Y-77318345D01*
X59534356Y-77169124D01*
X59534358Y-77169119D01*
X59589505Y-77002697D01*
X59589506Y-77002690D01*
X59599999Y-76899986D01*
X59600000Y-76899973D01*
X59600000Y-76500000D01*
X58500000Y-76500000D01*
X58500000Y-77599999D01*
X57999999Y-77599999D01*
X58000000Y-77599998D01*
X58000000Y-76500000D01*
X56900001Y-76500000D01*
X56900001Y-76899986D01*
X56515087Y-76899986D01*
X56576465Y-76808127D01*
X56625501Y-76689744D01*
X56643353Y-76600000D01*
X56650500Y-76564071D01*
X56650500Y-76435928D01*
X56625502Y-76310261D01*
X56625501Y-76310260D01*
X56625501Y-76310256D01*
X56581456Y-76203922D01*
X57900000Y-76203922D01*
X57900000Y-76296078D01*
X57923852Y-76385095D01*
X57969930Y-76464905D01*
X58035095Y-76530070D01*
X58114905Y-76576148D01*
X58203922Y-76600000D01*
X58296078Y-76600000D01*
X58385095Y-76576148D01*
X58464905Y-76530070D01*
X58530070Y-76464905D01*
X58576148Y-76385095D01*
X58600000Y-76296078D01*
X58600000Y-76203922D01*
X58583867Y-76143713D01*
X60899500Y-76143713D01*
X60899500Y-76356286D01*
X60932409Y-76564069D01*
X60932754Y-76566243D01*
X60943722Y-76600000D01*
X60998444Y-76768414D01*
X61094951Y-76957820D01*
X61219890Y-77129786D01*
X61370213Y-77280109D01*
X61542179Y-77405048D01*
X61542181Y-77405049D01*
X61542184Y-77405051D01*
X61731588Y-77501557D01*
X61933757Y-77567246D01*
X62143713Y-77600500D01*
X62143714Y-77600500D01*
X62356286Y-77600500D01*
X62356287Y-77600500D01*
X62566243Y-77567246D01*
X62768412Y-77501557D01*
X62957816Y-77405051D01*
X63053784Y-77335327D01*
X63129786Y-77280109D01*
X63129788Y-77280106D01*
X63129792Y-77280104D01*
X63280104Y-77129792D01*
X63280106Y-77129788D01*
X63280109Y-77129786D01*
X63405048Y-76957820D01*
X63405047Y-76957820D01*
X63405051Y-76957816D01*
X63501557Y-76768412D01*
X63567246Y-76566243D01*
X63600500Y-76356287D01*
X63600500Y-76143713D01*
X64899500Y-76143713D01*
X64899500Y-76356286D01*
X64932409Y-76564069D01*
X64932754Y-76566243D01*
X64943722Y-76600000D01*
X64998444Y-76768414D01*
X65094951Y-76957820D01*
X65219890Y-77129786D01*
X65370213Y-77280109D01*
X65542179Y-77405048D01*
X65542181Y-77405049D01*
X65542184Y-77405051D01*
X65731588Y-77501557D01*
X65933757Y-77567246D01*
X66143713Y-77600500D01*
X66143714Y-77600500D01*
X66356286Y-77600500D01*
X66356287Y-77600500D01*
X66566243Y-77567246D01*
X66768412Y-77501557D01*
X66957816Y-77405051D01*
X67053784Y-77335327D01*
X67129786Y-77280109D01*
X67129788Y-77280106D01*
X67129792Y-77280104D01*
X67280104Y-77129792D01*
X67280106Y-77129788D01*
X67280109Y-77129786D01*
X67405048Y-76957820D01*
X67405047Y-76957820D01*
X67405051Y-76957816D01*
X67501557Y-76768412D01*
X67567246Y-76566243D01*
X67600500Y-76356287D01*
X67600500Y-76143713D01*
X67567246Y-75933757D01*
X67501557Y-75731588D01*
X67405051Y-75542184D01*
X67405049Y-75542181D01*
X67405048Y-75542179D01*
X67280109Y-75370213D01*
X67129786Y-75219890D01*
X66957820Y-75094951D01*
X66768414Y-74998444D01*
X66768413Y-74998443D01*
X66768412Y-74998443D01*
X66566243Y-74932754D01*
X66566241Y-74932753D01*
X66566240Y-74932753D01*
X66404957Y-74907208D01*
X66356287Y-74899500D01*
X66143713Y-74899500D01*
X66095042Y-74907208D01*
X65933760Y-74932753D01*
X65731585Y-74998444D01*
X65542179Y-75094951D01*
X65370213Y-75219890D01*
X65219890Y-75370213D01*
X65094951Y-75542179D01*
X64998444Y-75731585D01*
X64932753Y-75933760D01*
X64899500Y-76143713D01*
X63600500Y-76143713D01*
X63567246Y-75933757D01*
X63501557Y-75731588D01*
X63405051Y-75542184D01*
X63405049Y-75542181D01*
X63405048Y-75542179D01*
X63280109Y-75370213D01*
X63129786Y-75219890D01*
X62957820Y-75094951D01*
X62768414Y-74998444D01*
X62768413Y-74998443D01*
X62768412Y-74998443D01*
X62566243Y-74932754D01*
X62566241Y-74932753D01*
X62566240Y-74932753D01*
X62404957Y-74907208D01*
X62356287Y-74899500D01*
X62143713Y-74899500D01*
X62095042Y-74907208D01*
X61933760Y-74932753D01*
X61731585Y-74998444D01*
X61542179Y-75094951D01*
X61370213Y-75219890D01*
X61219890Y-75370213D01*
X61094951Y-75542179D01*
X60998444Y-75731585D01*
X60932753Y-75933760D01*
X60899500Y-76143713D01*
X58583867Y-76143713D01*
X58576148Y-76114905D01*
X58530070Y-76035095D01*
X58494975Y-76000000D01*
X58500000Y-76000000D01*
X59599999Y-76000000D01*
X59599999Y-75600028D01*
X59599998Y-75600013D01*
X59589505Y-75497302D01*
X59534358Y-75330880D01*
X59534356Y-75330875D01*
X59442315Y-75181654D01*
X59318345Y-75057684D01*
X59169124Y-74965643D01*
X59169119Y-74965641D01*
X59002697Y-74910494D01*
X59002690Y-74910493D01*
X58899986Y-74900000D01*
X58500000Y-74900000D01*
X58500000Y-76000000D01*
X58494975Y-76000000D01*
X58464905Y-75969930D01*
X58385095Y-75923852D01*
X58296078Y-75900000D01*
X58203922Y-75900000D01*
X58114905Y-75923852D01*
X58035095Y-75969930D01*
X57969930Y-76035095D01*
X57923852Y-76114905D01*
X57900000Y-76203922D01*
X56581456Y-76203922D01*
X56576465Y-76191873D01*
X56576461Y-76191866D01*
X56505276Y-76085331D01*
X56505273Y-76085327D01*
X56414672Y-75994726D01*
X56414668Y-75994723D01*
X56308133Y-75923538D01*
X56308124Y-75923533D01*
X56189744Y-75874499D01*
X56189738Y-75874497D01*
X56064071Y-75849500D01*
X56064069Y-75849500D01*
X55935931Y-75849500D01*
X55935929Y-75849500D01*
X55810261Y-75874497D01*
X55810255Y-75874499D01*
X55691875Y-75923533D01*
X55691866Y-75923538D01*
X55585331Y-75994723D01*
X55585327Y-75994726D01*
X55494726Y-76085327D01*
X55494723Y-76085331D01*
X55423538Y-76191866D01*
X55423533Y-76191875D01*
X55374499Y-76310255D01*
X55374497Y-76310261D01*
X55349500Y-76435928D01*
X55349500Y-76435931D01*
X55349500Y-76564069D01*
X55349500Y-76564071D01*
X55349499Y-76564071D01*
X52500500Y-76564071D01*
X52500500Y-75096570D01*
X53619500Y-75096570D01*
X53619500Y-75243429D01*
X53648147Y-75387446D01*
X53648149Y-75387454D01*
X53704345Y-75523124D01*
X53704350Y-75523133D01*
X53785931Y-75645227D01*
X53785934Y-75645231D01*
X53889768Y-75749065D01*
X53889772Y-75749068D01*
X54011866Y-75830649D01*
X54011872Y-75830652D01*
X54011873Y-75830653D01*
X54147546Y-75886851D01*
X54291570Y-75915499D01*
X54291574Y-75915500D01*
X54291575Y-75915500D01*
X54438426Y-75915500D01*
X54438427Y-75915499D01*
X54582454Y-75886851D01*
X54718127Y-75830653D01*
X54840228Y-75749068D01*
X54944068Y-75645228D01*
X55025653Y-75523127D01*
X55081851Y-75387454D01*
X55110500Y-75243425D01*
X55110500Y-75096575D01*
X55081851Y-74952546D01*
X55038384Y-74847609D01*
X55025654Y-74816875D01*
X55025649Y-74816866D01*
X54944068Y-74694772D01*
X54944065Y-74694768D01*
X54840231Y-74590934D01*
X54840227Y-74590931D01*
X54718133Y-74509350D01*
X54718124Y-74509345D01*
X54582454Y-74453149D01*
X54582446Y-74453147D01*
X54438429Y-74424500D01*
X54438425Y-74424500D01*
X54291575Y-74424500D01*
X54291570Y-74424500D01*
X54147553Y-74453147D01*
X54147545Y-74453149D01*
X54011875Y-74509345D01*
X54011866Y-74509350D01*
X53889772Y-74590931D01*
X53889768Y-74590934D01*
X53785934Y-74694768D01*
X53785931Y-74694772D01*
X53704350Y-74816866D01*
X53704345Y-74816875D01*
X53648149Y-74952545D01*
X53648147Y-74952553D01*
X53619500Y-75096570D01*
X52500500Y-75096570D01*
X52500500Y-74314071D01*
X56499499Y-74314071D01*
X56524497Y-74439738D01*
X56524499Y-74439744D01*
X56573533Y-74558124D01*
X56573538Y-74558133D01*
X56644723Y-74664668D01*
X56644726Y-74664672D01*
X56735327Y-74755273D01*
X56735331Y-74755276D01*
X56841866Y-74826461D01*
X56841872Y-74826464D01*
X56841873Y-74826465D01*
X56960256Y-74875501D01*
X56960260Y-74875501D01*
X56960261Y-74875502D01*
X57069349Y-74897202D01*
X57131260Y-74929587D01*
X57165834Y-74990303D01*
X57162093Y-75060073D01*
X57132839Y-75106500D01*
X57057682Y-75181657D01*
X56965643Y-75330875D01*
X56965641Y-75330880D01*
X56910494Y-75497302D01*
X56910493Y-75497309D01*
X56900000Y-75600013D01*
X56900000Y-76000000D01*
X58000000Y-76000000D01*
X58000000Y-74900000D01*
X57719307Y-74900000D01*
X57652268Y-74880315D01*
X57606513Y-74827511D01*
X57596569Y-74758353D01*
X57625594Y-74694797D01*
X57631613Y-74688331D01*
X57655276Y-74664669D01*
X57726465Y-74558127D01*
X57775501Y-74439744D01*
X57800500Y-74314069D01*
X57800500Y-74185931D01*
X57800500Y-74185928D01*
X57786206Y-74114071D01*
X64799499Y-74114071D01*
X64824497Y-74239738D01*
X64824499Y-74239744D01*
X64873533Y-74358124D01*
X64873538Y-74358133D01*
X64944723Y-74464668D01*
X64944726Y-74464672D01*
X65035327Y-74555273D01*
X65035331Y-74555276D01*
X65141866Y-74626461D01*
X65141872Y-74626464D01*
X65141873Y-74626465D01*
X65260256Y-74675501D01*
X65260260Y-74675501D01*
X65260261Y-74675502D01*
X65385928Y-74700500D01*
X65385931Y-74700500D01*
X65514071Y-74700500D01*
X65598615Y-74683682D01*
X65639744Y-74675501D01*
X65758127Y-74626465D01*
X65864669Y-74555276D01*
X65955276Y-74464669D01*
X66026465Y-74358127D01*
X66075501Y-74239744D01*
X66100500Y-74114069D01*
X66100500Y-73985931D01*
X66100500Y-73985928D01*
X66075502Y-73860261D01*
X66075501Y-73860260D01*
X66075501Y-73860256D01*
X66026465Y-73741873D01*
X66026464Y-73741872D01*
X66026461Y-73741866D01*
X65955276Y-73635331D01*
X65955273Y-73635327D01*
X65864672Y-73544726D01*
X65864668Y-73544723D01*
X65758133Y-73473538D01*
X65758124Y-73473533D01*
X65639744Y-73424499D01*
X65639738Y-73424497D01*
X65514071Y-73399500D01*
X65514069Y-73399500D01*
X65385931Y-73399500D01*
X65385929Y-73399500D01*
X65260261Y-73424497D01*
X65260255Y-73424499D01*
X65141875Y-73473533D01*
X65141866Y-73473538D01*
X65035331Y-73544723D01*
X65035327Y-73544726D01*
X64944726Y-73635327D01*
X64944723Y-73635331D01*
X64873538Y-73741866D01*
X64873533Y-73741875D01*
X64824499Y-73860255D01*
X64824497Y-73860261D01*
X64799500Y-73985928D01*
X64799500Y-73985931D01*
X64799500Y-74114069D01*
X64799500Y-74114071D01*
X64799499Y-74114071D01*
X57786206Y-74114071D01*
X57775502Y-74060261D01*
X57775501Y-74060260D01*
X57775501Y-74060256D01*
X57775499Y-74060251D01*
X57761847Y-74027291D01*
X57726466Y-73941876D01*
X57726466Y-73941875D01*
X57726465Y-73941873D01*
X57726463Y-73941870D01*
X57726461Y-73941866D01*
X57655276Y-73835331D01*
X57655273Y-73835327D01*
X57564672Y-73744726D01*
X57564668Y-73744723D01*
X57458133Y-73673538D01*
X57458124Y-73673533D01*
X57339744Y-73624499D01*
X57339738Y-73624497D01*
X57214071Y-73599500D01*
X57214069Y-73599500D01*
X57085931Y-73599500D01*
X57085929Y-73599500D01*
X56960261Y-73624497D01*
X56960255Y-73624499D01*
X56841875Y-73673533D01*
X56841866Y-73673538D01*
X56735331Y-73744723D01*
X56735327Y-73744726D01*
X56644726Y-73835327D01*
X56644723Y-73835331D01*
X56573538Y-73941866D01*
X56573533Y-73941875D01*
X56524499Y-74060255D01*
X56524497Y-74060261D01*
X56499500Y-74185928D01*
X56499500Y-74185931D01*
X56499500Y-74314069D01*
X56499500Y-74314071D01*
X56499499Y-74314071D01*
X52500500Y-74314071D01*
X52500500Y-73457935D01*
X52520185Y-73390896D01*
X52572989Y-73345141D01*
X52642147Y-73335197D01*
X52705703Y-73364222D01*
X52727601Y-73389043D01*
X52736775Y-73402773D01*
X52744725Y-73414671D01*
X52835327Y-73505273D01*
X52835331Y-73505276D01*
X52941866Y-73576461D01*
X52941872Y-73576464D01*
X52941873Y-73576465D01*
X53060256Y-73625501D01*
X53060260Y-73625501D01*
X53060261Y-73625502D01*
X53185928Y-73650500D01*
X53185931Y-73650500D01*
X53314071Y-73650500D01*
X53398615Y-73633682D01*
X53439744Y-73625501D01*
X53558127Y-73576465D01*
X53664669Y-73505276D01*
X53755276Y-73414669D01*
X53826465Y-73308127D01*
X53875501Y-73189744D01*
X53900500Y-73064069D01*
X53900500Y-72935931D01*
X53900500Y-72935928D01*
X53875502Y-72810261D01*
X53875501Y-72810260D01*
X53875501Y-72810256D01*
X53826465Y-72691873D01*
X53826464Y-72691872D01*
X53826461Y-72691866D01*
X53755276Y-72585331D01*
X53755273Y-72585327D01*
X53664672Y-72494726D01*
X53664668Y-72494723D01*
X53558133Y-72423538D01*
X53558124Y-72423533D01*
X53439744Y-72374499D01*
X53439738Y-72374497D01*
X53314071Y-72349500D01*
X53314069Y-72349500D01*
X53185931Y-72349500D01*
X53185929Y-72349500D01*
X53060261Y-72374497D01*
X53060255Y-72374499D01*
X52941875Y-72423533D01*
X52941866Y-72423538D01*
X52835331Y-72494723D01*
X52835327Y-72494726D01*
X52744726Y-72585327D01*
X52744723Y-72585331D01*
X52727602Y-72610955D01*
X52673989Y-72655760D01*
X52604664Y-72664467D01*
X52541637Y-72634312D01*
X52504918Y-72574869D01*
X52500500Y-72542064D01*
X52500500Y-69764071D01*
X54049499Y-69764071D01*
X54074497Y-69889738D01*
X54074499Y-69889744D01*
X54123533Y-70008124D01*
X54123538Y-70008133D01*
X54194723Y-70114668D01*
X54194726Y-70114672D01*
X54242373Y-70162319D01*
X54275858Y-70223642D01*
X54270874Y-70293334D01*
X54242373Y-70337681D01*
X54194726Y-70385327D01*
X54194723Y-70385331D01*
X54123538Y-70491866D01*
X54123533Y-70491875D01*
X54074499Y-70610255D01*
X54074497Y-70610261D01*
X54049500Y-70735928D01*
X54049500Y-70735931D01*
X54049500Y-70864069D01*
X54049500Y-70864071D01*
X54049499Y-70864071D01*
X54074497Y-70989738D01*
X54074499Y-70989744D01*
X54123533Y-71108124D01*
X54123538Y-71108133D01*
X54194723Y-71214668D01*
X54194726Y-71214672D01*
X54217373Y-71237319D01*
X54250858Y-71298642D01*
X54245874Y-71368334D01*
X54217373Y-71412681D01*
X54194726Y-71435327D01*
X54194723Y-71435331D01*
X54123538Y-71541866D01*
X54123533Y-71541875D01*
X54074499Y-71660255D01*
X54074497Y-71660261D01*
X54049500Y-71785928D01*
X54049500Y-71785931D01*
X54049500Y-71914069D01*
X54049500Y-71914071D01*
X54049499Y-71914071D01*
X54074497Y-72039738D01*
X54074499Y-72039744D01*
X54123533Y-72158124D01*
X54123538Y-72158133D01*
X54194723Y-72264668D01*
X54194726Y-72264672D01*
X54285327Y-72355273D01*
X54285331Y-72355276D01*
X54391866Y-72426461D01*
X54391872Y-72426464D01*
X54391873Y-72426465D01*
X54510256Y-72475501D01*
X54510260Y-72475501D01*
X54510261Y-72475502D01*
X54635928Y-72500500D01*
X54635931Y-72500500D01*
X54764071Y-72500500D01*
X54848615Y-72483682D01*
X54889744Y-72475501D01*
X55008127Y-72426465D01*
X55114669Y-72355276D01*
X55205276Y-72264669D01*
X55276465Y-72158127D01*
X55325501Y-72039744D01*
X55350500Y-71914069D01*
X55350500Y-71785931D01*
X55350500Y-71785928D01*
X55325502Y-71660261D01*
X55325501Y-71660260D01*
X55325501Y-71660256D01*
X55276465Y-71541873D01*
X55276464Y-71541872D01*
X55276461Y-71541866D01*
X55205277Y-71435332D01*
X55205272Y-71435327D01*
X55182625Y-71412680D01*
X55149141Y-71351360D01*
X55154124Y-71281669D01*
X55182625Y-71237319D01*
X55205276Y-71214669D01*
X55276465Y-71108127D01*
X55325501Y-70989744D01*
X55350500Y-70864069D01*
X55350500Y-70735931D01*
X55350500Y-70735928D01*
X55325502Y-70610261D01*
X55325501Y-70610260D01*
X55325501Y-70610256D01*
X55276465Y-70491873D01*
X55276464Y-70491872D01*
X55276461Y-70491866D01*
X55205276Y-70385331D01*
X55205273Y-70385327D01*
X55157627Y-70337681D01*
X55124142Y-70276358D01*
X55129126Y-70206666D01*
X55157627Y-70162319D01*
X55205273Y-70114672D01*
X55205276Y-70114669D01*
X55276465Y-70008127D01*
X55325501Y-69889744D01*
X55350500Y-69764069D01*
X55350500Y-69635931D01*
X55350500Y-69635928D01*
X55325502Y-69510261D01*
X55325501Y-69510260D01*
X55325501Y-69510256D01*
X55287574Y-69418692D01*
X55276466Y-69391875D01*
X55276461Y-69391866D01*
X55205276Y-69285331D01*
X55205273Y-69285327D01*
X55114672Y-69194726D01*
X55114668Y-69194723D01*
X55008133Y-69123538D01*
X55008124Y-69123533D01*
X54889744Y-69074499D01*
X54889738Y-69074497D01*
X54764071Y-69049500D01*
X54764069Y-69049500D01*
X54635931Y-69049500D01*
X54635929Y-69049500D01*
X54510261Y-69074497D01*
X54510255Y-69074499D01*
X54391875Y-69123533D01*
X54391866Y-69123538D01*
X54285331Y-69194723D01*
X54285327Y-69194726D01*
X54194726Y-69285327D01*
X54194723Y-69285331D01*
X54123538Y-69391866D01*
X54123533Y-69391875D01*
X54074499Y-69510255D01*
X54074497Y-69510261D01*
X54049500Y-69635928D01*
X54049500Y-69635931D01*
X54049500Y-69764069D01*
X54049500Y-69764071D01*
X54049499Y-69764071D01*
X52500500Y-69764071D01*
X52500500Y-68814071D01*
X66799499Y-68814071D01*
X66824497Y-68939738D01*
X66824499Y-68939744D01*
X66873533Y-69058124D01*
X66873538Y-69058133D01*
X66944723Y-69164668D01*
X66944726Y-69164672D01*
X67035327Y-69255273D01*
X67035331Y-69255276D01*
X67141866Y-69326461D01*
X67141872Y-69326464D01*
X67141873Y-69326465D01*
X67260256Y-69375501D01*
X67260260Y-69375501D01*
X67260261Y-69375502D01*
X67385928Y-69400500D01*
X67385931Y-69400500D01*
X67514071Y-69400500D01*
X67598615Y-69383682D01*
X67639744Y-69375501D01*
X67758127Y-69326465D01*
X67864669Y-69255276D01*
X67955276Y-69164669D01*
X68026465Y-69058127D01*
X68075501Y-68939744D01*
X68100500Y-68814069D01*
X68100500Y-68685931D01*
X68100500Y-68685928D01*
X68075502Y-68560261D01*
X68075501Y-68560260D01*
X68075501Y-68560256D01*
X68026465Y-68441873D01*
X68026464Y-68441872D01*
X68026461Y-68441866D01*
X67955276Y-68335331D01*
X67955273Y-68335327D01*
X67864672Y-68244726D01*
X67864668Y-68244723D01*
X67758133Y-68173538D01*
X67758124Y-68173533D01*
X67639744Y-68124499D01*
X67639738Y-68124497D01*
X67514071Y-68099500D01*
X67514069Y-68099500D01*
X67385931Y-68099500D01*
X67385929Y-68099500D01*
X67260261Y-68124497D01*
X67260255Y-68124499D01*
X67141875Y-68173533D01*
X67141866Y-68173538D01*
X67035331Y-68244723D01*
X67035327Y-68244726D01*
X66944726Y-68335327D01*
X66944723Y-68335331D01*
X66873538Y-68441866D01*
X66873533Y-68441875D01*
X66824499Y-68560255D01*
X66824497Y-68560261D01*
X66799500Y-68685928D01*
X66799500Y-68685931D01*
X66799500Y-68814069D01*
X66799500Y-68814071D01*
X66799499Y-68814071D01*
X52500500Y-68814071D01*
X52500500Y-62350000D01*
X53950000Y-62350000D01*
X53950000Y-62250000D01*
X59486496Y-62250000D01*
X59553535Y-62269685D01*
G37*
%TD.AperFunction*%
%TD*%
%TA.AperFunction,Conductor*%
%TO.N,+3.3V*%
G36*
X53893039Y-61019685D02*
G01*
X53938794Y-61072489D01*
X53950000Y-61124000D01*
X53950000Y-62350000D01*
X52500500Y-62350000D01*
X52500500Y-61124000D01*
X52520185Y-61056961D01*
X52572989Y-61011206D01*
X52624500Y-61000000D01*
X53826000Y-61000000D01*
X53893039Y-61019685D01*
G37*
%TD.AperFunction*%
%TD*%
M02*
