%TF.GenerationSoftware,KiCad,Pcbnew,9.0.3*%
%TF.CreationDate,2025-07-11T23:11:04-05:00*%
%TF.ProjectId,Watch_PCB,57617463-685f-4504-9342-2e6b69636164,rev?*%
%TF.SameCoordinates,Original*%
%TF.FileFunction,Copper,L4,Bot*%
%TF.FilePolarity,Positive*%
%FSLAX46Y46*%
G04 Gerber Fmt 4.6, Leading zero omitted, Abs format (unit mm)*
G04 Created by KiCad (PCBNEW 9.0.3) date 2025-07-11 23:11:04*
%MOMM*%
%LPD*%
G01*
G04 APERTURE LIST*
G04 Aperture macros list*
%AMRoundRect*
0 Rectangle with rounded corners*
0 $1 Rounding radius*
0 $2 $3 $4 $5 $6 $7 $8 $9 X,Y pos of 4 corners*
0 Add a 4 corners polygon primitive as box body*
4,1,4,$2,$3,$4,$5,$6,$7,$8,$9,$2,$3,0*
0 Add four circle primitives for the rounded corners*
1,1,$1+$1,$2,$3*
1,1,$1+$1,$4,$5*
1,1,$1+$1,$6,$7*
1,1,$1+$1,$8,$9*
0 Add four rect primitives between the rounded corners*
20,1,$1+$1,$2,$3,$4,$5,0*
20,1,$1+$1,$4,$5,$6,$7,0*
20,1,$1+$1,$6,$7,$8,$9,0*
20,1,$1+$1,$8,$9,$2,$3,0*%
G04 Aperture macros list end*
%TA.AperFunction,ComponentPad*%
%ADD10C,1.700000*%
%TD*%
%TA.AperFunction,ComponentPad*%
%ADD11RoundRect,0.250000X-0.600000X-0.600000X0.600000X-0.600000X0.600000X0.600000X-0.600000X0.600000X0*%
%TD*%
%TA.AperFunction,ViaPad*%
%ADD12C,0.600000*%
%TD*%
%TA.AperFunction,Conductor*%
%ADD13C,0.200000*%
%TD*%
G04 APERTURE END LIST*
D10*
%TO.P,J3,4,PIEZO_SIG*%
%TO.N,Net-(J3-PIEZO_SIG)*%
X70250000Y-76250000D03*
%TO.P,J3,3,PIEZO_GND*%
%TO.N,GND*%
X66250000Y-76250000D03*
%TO.P,J3,2,VBAT-*%
X62250000Y-76250000D03*
D11*
%TO.P,J3,1,VBAT+*%
%TO.N,+3.3V*%
X58250000Y-76250000D03*
%TD*%
D12*
%TO.N,Net-(U1-PB8)*%
X53250000Y-73000000D03*
X65450000Y-74050000D03*
%TO.N,Net-(U1-PA4)*%
X63600000Y-63050000D03*
%TO.N,Net-(U1-PA5)*%
X62650000Y-63050000D03*
%TO.N,Net-(U1-PA3)*%
X64400000Y-63900000D03*
%TO.N,Net-(U1-PA0)*%
X67450000Y-68750000D03*
%TO.N,Net-(J4-T_VCP_TX)*%
X54700000Y-69700000D03*
%TO.N,Net-(J4-T_VCP_RX)*%
X54700000Y-70800000D03*
%TO.N,Net-(J4-T_NRST)*%
X65700000Y-65650000D03*
%TO.N,Net-(U1-PA14)*%
X57150000Y-74250000D03*
%TO.N,Net-(U1-PA13)*%
X54700000Y-71850000D03*
%TO.N,Net-(U1-PA0)*%
X65700000Y-64250000D03*
%TO.N,Net-(U1-PA5)*%
X60132821Y-62800769D03*
%TO.N,Net-(U1-PA4)*%
X59000000Y-63300000D03*
%TO.N,Net-(U1-PA3)*%
X57900000Y-63900000D03*
%TO.N,Net-(J4-T_VCP_TX)*%
X56000000Y-76500000D03*
%TO.N,Net-(U1-PA13)*%
X52850000Y-80250000D03*
%TO.N,Net-(J4-T_VCP_RX)*%
X56000000Y-77750000D03*
%TO.N,Net-(J4-T_NRST)*%
X56000000Y-79000000D03*
%TO.N,Net-(U1-PA14)*%
X52850000Y-82790000D03*
%TD*%
D13*
%TO.N,Net-(U1-PB8)*%
X53250000Y-64800000D02*
X53250000Y-73000000D01*
X53200000Y-64750000D02*
X53250000Y-64800000D01*
X56300000Y-61650000D02*
X53200000Y-64750000D01*
X64550000Y-61650000D02*
X56300000Y-61650000D01*
X68100000Y-65200000D02*
X64550000Y-61650000D01*
X68100000Y-72900000D02*
X68100000Y-65200000D01*
X66950000Y-74050000D02*
X68100000Y-72900000D01*
X65450000Y-74050000D02*
X66950000Y-74050000D01*
%TO.N,Net-(U1-PA13)*%
X54060000Y-73840000D02*
X54060000Y-72490000D01*
X54060000Y-72490000D02*
X54700000Y-71850000D01*
X52850000Y-80250000D02*
X52850000Y-75050000D01*
X52850000Y-75050000D02*
X54060000Y-73840000D01*
%TO.N,Net-(U1-PA4)*%
X62529761Y-64120239D02*
X63600000Y-63050000D01*
X62519704Y-64120239D02*
X62529761Y-64120239D01*
X61968943Y-64671000D02*
X62519704Y-64120239D01*
X61171000Y-64671000D02*
X61968943Y-64671000D01*
X59800000Y-63300000D02*
X61171000Y-64671000D01*
X59000000Y-63300000D02*
X59800000Y-63300000D01*
%TO.N,Net-(U1-PA5)*%
X61490000Y-64070000D02*
X61630000Y-64070000D01*
X61630000Y-64070000D02*
X62650000Y-63050000D01*
X60220769Y-62800769D02*
X61490000Y-64070000D01*
X60132821Y-62800769D02*
X60220769Y-62800769D01*
%TO.N,Net-(U1-PA3)*%
X63900000Y-63900000D02*
X64400000Y-63900000D01*
X62290000Y-65170000D02*
X63370000Y-64090000D01*
X63710000Y-64090000D02*
X63900000Y-63900000D01*
X60420000Y-65170000D02*
X62290000Y-65170000D01*
X59150000Y-63900000D02*
X60420000Y-65170000D01*
X57900000Y-63900000D02*
X59150000Y-63900000D01*
X63370000Y-64090000D02*
X63710000Y-64090000D01*
%TO.N,Net-(U1-PA0)*%
X67450000Y-66000000D02*
X67450000Y-68750000D01*
X65700000Y-64250000D02*
X67450000Y-66000000D01*
%TO.N,Net-(U1-PA14)*%
X52850000Y-82650000D02*
X52850000Y-82790000D01*
X53330000Y-82170000D02*
X52850000Y-82650000D01*
X54340000Y-82000000D02*
X54170000Y-82170000D01*
X54340000Y-78800000D02*
X54340000Y-82000000D01*
X54770000Y-78370000D02*
X54340000Y-78800000D01*
X56410000Y-78370000D02*
X54770000Y-78370000D01*
X56601000Y-78179000D02*
X56410000Y-78370000D01*
X56601000Y-74411000D02*
X56601000Y-78179000D01*
X56580000Y-74390000D02*
X56601000Y-74411000D01*
X56720000Y-74250000D02*
X56580000Y-74390000D01*
X57150000Y-74250000D02*
X56720000Y-74250000D01*
X54170000Y-82170000D02*
X53330000Y-82170000D01*
%TO.N,Net-(J4-T_NRST)*%
X60330000Y-77860000D02*
X59190000Y-79000000D01*
X62840000Y-65500000D02*
X60330000Y-68010000D01*
X65550000Y-65500000D02*
X62840000Y-65500000D01*
X60330000Y-68010000D02*
X60330000Y-77860000D01*
X65700000Y-65650000D02*
X65550000Y-65500000D01*
X59190000Y-79000000D02*
X56000000Y-79000000D01*
%TO.N,Net-(U1-PA13)*%
X52850000Y-80250000D02*
X52750000Y-80150000D01*
%TO.N,Net-(J4-T_VCP_RX)*%
X55211000Y-76961000D02*
X56000000Y-77750000D01*
X55211000Y-74099000D02*
X55211000Y-76961000D01*
X56220000Y-72540000D02*
X56220000Y-73090000D01*
X55570000Y-71670000D02*
X55570000Y-71890000D01*
X55570000Y-71890000D02*
X56220000Y-72540000D01*
X54700000Y-70800000D02*
X55570000Y-71670000D01*
X56220000Y-73090000D02*
X55211000Y-74099000D01*
%TO.N,Net-(J4-T_VCP_TX)*%
X56000000Y-74180000D02*
X56000000Y-76500000D01*
X56890000Y-72360057D02*
X56890000Y-73290000D01*
X55429943Y-70900000D02*
X56890000Y-72360057D01*
X55429943Y-70529943D02*
X55429943Y-70900000D01*
X54700000Y-69700000D02*
X54700000Y-69800000D01*
X54700000Y-69800000D02*
X55429943Y-70529943D01*
X56890000Y-73290000D02*
X56000000Y-74180000D01*
%TD*%
M02*
