%TF.GenerationSoftware,KiCad,Pcbnew,9.0.3*%
%TF.CreationDate,2025-07-11T23:11:04-05:00*%
%TF.ProjectId,Watch_PCB,57617463-685f-4504-9342-2e6b69636164,rev?*%
%TF.SameCoordinates,Original*%
%TF.FileFunction,Copper,L1,Top*%
%TF.FilePolarity,Positive*%
%FSLAX46Y46*%
G04 Gerber Fmt 4.6, Leading zero omitted, Abs format (unit mm)*
G04 Created by KiCad (PCBNEW 9.0.3) date 2025-07-11 23:11:04*
%MOMM*%
%LPD*%
G01*
G04 APERTURE LIST*
G04 Aperture macros list*
%AMRoundRect*
0 Rectangle with rounded corners*
0 $1 Rounding radius*
0 $2 $3 $4 $5 $6 $7 $8 $9 X,Y pos of 4 corners*
0 Add a 4 corners polygon primitive as box body*
4,1,4,$2,$3,$4,$5,$6,$7,$8,$9,$2,$3,0*
0 Add four circle primitives for the rounded corners*
1,1,$1+$1,$2,$3*
1,1,$1+$1,$4,$5*
1,1,$1+$1,$6,$7*
1,1,$1+$1,$8,$9*
0 Add four rect primitives between the rounded corners*
20,1,$1+$1,$2,$3,$4,$5,0*
20,1,$1+$1,$4,$5,$6,$7,0*
20,1,$1+$1,$6,$7,$8,$9,0*
20,1,$1+$1,$8,$9,$2,$3,0*%
G04 Aperture macros list end*
%TA.AperFunction,SMDPad,CuDef*%
%ADD10RoundRect,0.200000X-0.275000X0.200000X-0.275000X-0.200000X0.275000X-0.200000X0.275000X0.200000X0*%
%TD*%
%TA.AperFunction,SMDPad,CuDef*%
%ADD11RoundRect,0.125000X0.125000X0.625000X-0.125000X0.625000X-0.125000X-0.625000X0.125000X-0.625000X0*%
%TD*%
%TA.AperFunction,SMDPad,CuDef*%
%ADD12RoundRect,0.125000X0.625000X0.125000X-0.625000X0.125000X-0.625000X-0.125000X0.625000X-0.125000X0*%
%TD*%
%TA.AperFunction,SMDPad,CuDef*%
%ADD13R,0.900000X1.900000*%
%TD*%
%TA.AperFunction,SMDPad,CuDef*%
%ADD14RoundRect,0.225000X0.250000X-0.225000X0.250000X0.225000X-0.250000X0.225000X-0.250000X-0.225000X0*%
%TD*%
%TA.AperFunction,SMDPad,CuDef*%
%ADD15RoundRect,0.225000X0.225000X0.250000X-0.225000X0.250000X-0.225000X-0.250000X0.225000X-0.250000X0*%
%TD*%
%TA.AperFunction,SMDPad,CuDef*%
%ADD16RoundRect,0.250000X0.475000X-0.250000X0.475000X0.250000X-0.475000X0.250000X-0.475000X-0.250000X0*%
%TD*%
%TA.AperFunction,SMDPad,CuDef*%
%ADD17RoundRect,0.200000X0.200000X0.275000X-0.200000X0.275000X-0.200000X-0.275000X0.200000X-0.275000X0*%
%TD*%
%TA.AperFunction,SMDPad,CuDef*%
%ADD18RoundRect,0.200000X0.275000X-0.200000X0.275000X0.200000X-0.275000X0.200000X-0.275000X-0.200000X0*%
%TD*%
%TA.AperFunction,ComponentPad*%
%ADD19C,1.700000*%
%TD*%
%TA.AperFunction,ComponentPad*%
%ADD20RoundRect,0.250000X-0.600000X-0.600000X0.600000X-0.600000X0.600000X0.600000X-0.600000X0.600000X0*%
%TD*%
%TA.AperFunction,SMDPad,CuDef*%
%ADD21O,0.787000X0.787000*%
%TD*%
%TA.AperFunction,SMDPad,CuDef*%
%ADD22RoundRect,0.218750X-0.256250X0.218750X-0.256250X-0.218750X0.256250X-0.218750X0.256250X0.218750X0*%
%TD*%
%TA.AperFunction,SMDPad,CuDef*%
%ADD23RoundRect,0.225000X-0.250000X0.225000X-0.250000X-0.225000X0.250000X-0.225000X0.250000X0.225000X0*%
%TD*%
%TA.AperFunction,ViaPad*%
%ADD24C,0.600000*%
%TD*%
%TA.AperFunction,Conductor*%
%ADD25C,0.200000*%
%TD*%
G04 APERTURE END LIST*
D10*
%TO.P,1k1,1*%
%TO.N,Net-(D1-A)*%
X53200000Y-69925000D03*
%TO.P,1k1,2*%
%TO.N,Net-(U1-PB8)*%
X53200000Y-71575000D03*
%TD*%
D11*
%TO.P,U1,32,PB8*%
%TO.N,Net-(U1-PB8)*%
X63875000Y-73875000D03*
%TO.P,U1,31,PB7*%
%TO.N,unconnected-(U1-PB7-Pad31)*%
X63075000Y-73875000D03*
%TO.P,U1,30,PB6*%
%TO.N,unconnected-(U1-PB6-Pad30)*%
X62275000Y-73875000D03*
%TO.P,U1,29,PB5*%
%TO.N,unconnected-(U1-PB5-Pad29)*%
X61475000Y-73875000D03*
%TO.P,U1,28,PB4*%
%TO.N,unconnected-(U1-PB4-Pad28)*%
X60675000Y-73875000D03*
%TO.P,U1,27,PB3*%
%TO.N,unconnected-(U1-PB3-Pad27)*%
X59875000Y-73875000D03*
%TO.P,U1,26,PA15*%
%TO.N,unconnected-(U1-PA15-Pad26)*%
X59075000Y-73875000D03*
%TO.P,U1,25,PA14*%
%TO.N,Net-(U1-PA14)*%
X58275000Y-73875000D03*
D12*
%TO.P,U1,24,PA13*%
%TO.N,Net-(U1-PA13)*%
X56900000Y-72500000D03*
%TO.P,U1,23,PA10/PA12*%
%TO.N,Net-(J4-T_VCP_RX)*%
X56900000Y-71700000D03*
%TO.P,U1,22,PA9/PA11*%
%TO.N,Net-(J4-T_VCP_TX)*%
X56900000Y-70900000D03*
%TO.P,U1,21,NC/PA10*%
%TO.N,unconnected-(U1-NC{slash}PA10-Pad21)*%
X56900000Y-70100000D03*
%TO.P,U1,20,PC6*%
%TO.N,unconnected-(U1-PC6-Pad20)*%
X56900000Y-69300000D03*
%TO.P,U1,19,NC/PA9*%
%TO.N,unconnected-(U1-NC{slash}PA9-Pad19)*%
X56900000Y-68500000D03*
%TO.P,U1,18,PA8*%
%TO.N,unconnected-(U1-PA8-Pad18)*%
X56900000Y-67700000D03*
%TO.P,U1,17,PB2*%
%TO.N,unconnected-(U1-PB2-Pad17)*%
X56900000Y-66900000D03*
D11*
%TO.P,U1,16,PB1*%
%TO.N,unconnected-(U1-PB1-Pad16)*%
X58275000Y-65525000D03*
%TO.P,U1,15,PB0*%
%TO.N,unconnected-(U1-PB0-Pad15)*%
X59075000Y-65525000D03*
%TO.P,U1,14,PA7*%
%TO.N,Net-(U1-PA7)*%
X59875000Y-65525000D03*
%TO.P,U1,13,PA6*%
%TO.N,Net-(U1-PA6)*%
X60675000Y-65525000D03*
%TO.P,U1,12,PA5*%
%TO.N,Net-(U1-PA5)*%
X61475000Y-65525000D03*
%TO.P,U1,11,PA4*%
%TO.N,Net-(U1-PA4)*%
X62275000Y-65525000D03*
%TO.P,U1,10,PA3*%
%TO.N,Net-(U1-PA3)*%
X63075000Y-65525000D03*
%TO.P,U1,9,PA2*%
%TO.N,Net-(J4-T_NRST)*%
X63875000Y-65525000D03*
D12*
%TO.P,U1,8,PA1*%
%TO.N,Net-(U1-PA1)*%
X65250000Y-66900000D03*
%TO.P,U1,7,PA0*%
%TO.N,Net-(U1-PA0)*%
X65250000Y-67700000D03*
%TO.P,U1,6,PF2*%
%TO.N,unconnected-(U1-PF2-Pad6)*%
X65250000Y-68500000D03*
%TO.P,U1,5,VSS*%
%TO.N,GND*%
X65250000Y-69300000D03*
%TO.P,U1,4,VDD*%
%TO.N,+3.3V*%
X65250000Y-70100000D03*
%TO.P,U1,3,PC15*%
%TO.N,unconnected-(U1-PC15-Pad3)*%
X65250000Y-70900000D03*
%TO.P,U1,2,PC14*%
%TO.N,unconnected-(U1-PC14-Pad2)*%
X65250000Y-71700000D03*
%TO.P,U1,1,PB9*%
%TO.N,unconnected-(U1-PB9-Pad1)*%
X65250000Y-72500000D03*
%TD*%
D13*
%TO.P,U3,8,GND*%
%TO.N,GND*%
X65511600Y-61061500D03*
%TO.P,U3,7,IRQ*%
%TO.N,Net-(U1-PA0)*%
X64241600Y-61061500D03*
%TO.P,U3,6,MISO*%
%TO.N,Net-(U1-PA6)*%
X62971600Y-61061500D03*
%TO.P,U3,5,MOSI*%
%TO.N,Net-(U1-PA7)*%
X61701600Y-61061500D03*
%TO.P,U3,4,SCK*%
%TO.N,Net-(U1-PA5)*%
X60431600Y-61061500D03*
%TO.P,U3,3,CSN*%
%TO.N,Net-(U1-PA4)*%
X59161600Y-61061500D03*
%TO.P,U3,2,CE*%
%TO.N,Net-(U1-PA3)*%
X57891600Y-61061500D03*
%TO.P,U3,1,VCC*%
%TO.N,+3.3V*%
X56621600Y-61061500D03*
%TD*%
D14*
%TO.P,1uF1,1*%
%TO.N,GND*%
X69400000Y-73575000D03*
%TO.P,1uF1,2*%
%TO.N,+3.3V*%
X69400000Y-72025000D03*
%TD*%
D15*
%TO.P,100nF1,1*%
%TO.N,GND*%
X69375000Y-70150000D03*
%TO.P,100nF1,2*%
%TO.N,+3.3V*%
X67825000Y-70150000D03*
%TD*%
D16*
%TO.P,4.7uF1,1*%
%TO.N,GND*%
X53580000Y-64930000D03*
%TO.P,4.7uF1,2*%
%TO.N,+3.3V*%
X53580000Y-63030000D03*
%TD*%
D14*
%TO.P,100pF1,2*%
%TO.N,GND*%
X69400000Y-63325000D03*
%TO.P,100pF1,1*%
%TO.N,Net-(U1-PA1)*%
X69400000Y-64875000D03*
%TD*%
D17*
%TO.P,10k1,1*%
%TO.N,Net-(J3-PIEZO_SIG)*%
X68975000Y-67250000D03*
%TO.P,10k1,2*%
%TO.N,Net-(U1-PA1)*%
X67325000Y-67250000D03*
%TD*%
D18*
%TO.P,1M1,1*%
%TO.N,Net-(U1-PA1)*%
X67750000Y-64925000D03*
%TO.P,1M1,2*%
%TO.N,GND*%
X67750000Y-63275000D03*
%TD*%
D19*
%TO.P,J3,4,PIEZO_SIG*%
%TO.N,Net-(J3-PIEZO_SIG)*%
X70250000Y-76250000D03*
%TO.P,J3,3,PIEZO_GND*%
%TO.N,GND*%
X66250000Y-76250000D03*
%TO.P,J3,2,VBAT-*%
X62250000Y-76250000D03*
D20*
%TO.P,J3,1,VBAT+*%
%TO.N,+3.3V*%
X58250000Y-76250000D03*
%TD*%
D21*
%TO.P,J4,1,Reserved*%
%TO.N,unconnected-(J4-Reserved-Pad1)*%
X53730000Y-76440000D03*
%TO.P,J4,2,Reserved*%
%TO.N,unconnected-(J4-Reserved-Pad2)*%
X53730000Y-77710000D03*
%TO.P,J4,3,T_VCC*%
%TO.N,+3.3V*%
X53730000Y-78980000D03*
%TO.P,J4,4*%
%TO.N,Net-(U1-PA13)*%
X53730000Y-80250000D03*
%TO.P,J4,5,GND*%
%TO.N,GND*%
X53730000Y-81520000D03*
%TO.P,J4,6,T_JTDO/T_SWO*%
%TO.N,Net-(U1-PA14)*%
X53730000Y-82790000D03*
%TO.P,J4,7,GND*%
%TO.N,GND*%
X53730000Y-84060000D03*
%TO.P,J4,8,T_JTDO/T_SWO*%
%TO.N,unconnected-(J4-T_JTDO{slash}T_SWO-Pad8)*%
X55000000Y-84060000D03*
%TO.P,J4,9*%
%TO.N,unconnected-(J4-Pad9)*%
X55000000Y-82790000D03*
%TO.P,J4,10,T_JTDI/NC*%
%TO.N,unconnected-(J4-T_JTDI{slash}NC-Pad10)*%
X55000000Y-81520000D03*
%TO.P,J4,11,GNDDETECT*%
%TO.N,GND*%
X55000000Y-80250000D03*
%TO.P,J4,12,T_NRST*%
%TO.N,Net-(J4-T_NRST)*%
X55000000Y-78980000D03*
%TO.P,J4,13,T_VCP_RX*%
%TO.N,Net-(J4-T_VCP_RX)*%
X55000000Y-77710000D03*
%TO.P,J4,14,T_VCP_TX*%
%TO.N,Net-(J4-T_VCP_TX)*%
X55000000Y-76440000D03*
%TD*%
D22*
%TO.P,D1,1,K*%
%TO.N,GND*%
X53250000Y-66612500D03*
%TO.P,D1,2,A*%
%TO.N,Net-(D1-A)*%
X53250000Y-68187500D03*
%TD*%
D23*
%TO.P,100nF2,1*%
%TO.N,+3.3V*%
X55650000Y-63425000D03*
%TO.P,100nF2,2*%
%TO.N,GND*%
X55650000Y-64975000D03*
%TD*%
D24*
%TO.N,GND*%
X69860933Y-66034111D03*
X54550000Y-68100000D03*
X66700000Y-69500000D03*
%TO.N,Net-(U1-PB8)*%
X53250000Y-73000000D03*
X65450000Y-74050000D03*
%TO.N,+3.3V*%
X55200000Y-73200000D03*
%TO.N,GND*%
X54550000Y-66650000D03*
X55400000Y-66650000D03*
%TO.N,+3.3V*%
X57100000Y-65200000D03*
X53250000Y-61700000D03*
%TO.N,Net-(U1-PA4)*%
X63600000Y-63050000D03*
%TO.N,Net-(U1-PA5)*%
X62650000Y-63050000D03*
%TO.N,Net-(U1-PA3)*%
X64400000Y-63900000D03*
%TO.N,Net-(U1-PA0)*%
X67450000Y-68750000D03*
%TO.N,GND*%
X66725000Y-66000000D03*
X65700000Y-62950000D03*
%TO.N,Net-(J4-T_VCP_TX)*%
X54700000Y-69700000D03*
%TO.N,Net-(J4-T_VCP_RX)*%
X54700000Y-70800000D03*
%TO.N,GND*%
X69863235Y-68986765D03*
%TO.N,+3.3V*%
X67300000Y-73300000D03*
X67300000Y-71600000D03*
%TO.N,Net-(J4-T_NRST)*%
X65700000Y-65650000D03*
%TO.N,Net-(U1-PA14)*%
X57150000Y-74250000D03*
%TO.N,Net-(U1-PA13)*%
X54700000Y-71850000D03*
%TO.N,Net-(U1-PA0)*%
X65700000Y-64250000D03*
%TO.N,Net-(U1-PA5)*%
X60132821Y-62800769D03*
%TO.N,Net-(U1-PA4)*%
X59000000Y-63300000D03*
%TO.N,Net-(U1-PA3)*%
X57900000Y-63900000D03*
%TO.N,GND*%
X67850000Y-74350000D03*
%TO.N,Net-(J4-T_VCP_TX)*%
X56000000Y-76500000D03*
%TO.N,Net-(U1-PA13)*%
X52850000Y-80250000D03*
%TO.N,GND*%
X52810000Y-84060000D03*
%TO.N,Net-(J4-T_VCP_RX)*%
X56000000Y-77750000D03*
%TO.N,Net-(J4-T_NRST)*%
X56000000Y-79000000D03*
%TO.N,GND*%
X56000000Y-80250000D03*
%TO.N,Net-(U1-PA14)*%
X52850000Y-82790000D03*
%TO.N,GND*%
X52850000Y-81520000D03*
%TD*%
D25*
%TO.N,GND*%
X69375000Y-69475000D02*
X69863235Y-68986765D01*
X69375000Y-70150000D02*
X69375000Y-69475000D01*
X66725000Y-63950000D02*
X67400000Y-63275000D01*
X66725000Y-66000000D02*
X66725000Y-63950000D01*
%TO.N,Net-(U1-PA1)*%
X67325000Y-65000000D02*
X67400000Y-64925000D01*
X67325000Y-67250000D02*
X67325000Y-65000000D01*
%TO.N,GND*%
X53250000Y-66800000D02*
X54550000Y-68100000D01*
X53250000Y-66612500D02*
X53250000Y-66800000D01*
X66500000Y-69300000D02*
X66700000Y-69500000D01*
X65250000Y-69300000D02*
X66500000Y-69300000D01*
%TO.N,Net-(U1-PA5)*%
X61475000Y-64225000D02*
X62650000Y-63050000D01*
X61475000Y-65525000D02*
X61475000Y-64225000D01*
%TO.N,GND*%
X54512500Y-66612500D02*
X54550000Y-66650000D01*
%TO.N,Net-(D1-A)*%
X53250000Y-69875000D02*
X53250000Y-68187500D01*
%TO.N,Net-(U1-PB8)*%
X53250000Y-71525000D02*
X53250000Y-73000000D01*
X65275000Y-73875000D02*
X65450000Y-74050000D01*
X63875000Y-73875000D02*
X65275000Y-73875000D01*
%TO.N,GND*%
X54550000Y-65900000D02*
X54550000Y-66650000D01*
X53580000Y-64930000D02*
X54550000Y-65900000D01*
X55650000Y-66400000D02*
X55400000Y-66650000D01*
X55650000Y-64975000D02*
X55650000Y-66400000D01*
%TO.N,+3.3V*%
X56275000Y-63425000D02*
X55650000Y-63425000D01*
X57100000Y-64250000D02*
X56275000Y-63425000D01*
X57100000Y-65200000D02*
X57100000Y-64250000D01*
X53250000Y-61700000D02*
X53250000Y-61650000D01*
X53250000Y-62700000D02*
X53250000Y-62600000D01*
X53250000Y-62600000D02*
X53250000Y-61700000D01*
X53580000Y-63030000D02*
X53250000Y-62700000D01*
X55650000Y-63425000D02*
X53975000Y-63425000D01*
X53975000Y-63425000D02*
X53580000Y-63030000D01*
X56621600Y-62453400D02*
X55650000Y-63425000D01*
X56621600Y-61061500D02*
X56621600Y-62453400D01*
%TO.N,Net-(U1-PA4)*%
X59000000Y-62823200D02*
X59161600Y-62661600D01*
X59000000Y-63300000D02*
X59000000Y-62823200D01*
X59161600Y-62661600D02*
X59161600Y-61061500D01*
%TO.N,Net-(U1-PA5)*%
X60431600Y-62348400D02*
X60431600Y-61061500D01*
X60132821Y-62647179D02*
X60431600Y-62348400D01*
X60132821Y-62800769D02*
X60132821Y-62647179D01*
%TO.N,Net-(U1-PA3)*%
X57891600Y-62641600D02*
X57891600Y-61061500D01*
X57900000Y-62650000D02*
X57891600Y-62641600D01*
X57900000Y-63900000D02*
X57900000Y-62650000D01*
%TO.N,Net-(U1-PA5)*%
X62650000Y-63050000D02*
X62650000Y-63140000D01*
%TO.N,Net-(U1-PA4)*%
X62275000Y-64328353D02*
X62275000Y-65525000D01*
X62511586Y-64091767D02*
X62275000Y-64328353D01*
X63600000Y-63050000D02*
X62558233Y-64091767D01*
X62558233Y-64091767D02*
X62511586Y-64091767D01*
%TO.N,Net-(U1-PA3)*%
X63075000Y-64345000D02*
X63075000Y-65525000D01*
X63570000Y-63850000D02*
X63075000Y-64345000D01*
X64350000Y-63850000D02*
X63570000Y-63850000D01*
X64400000Y-63900000D02*
X64350000Y-63850000D01*
%TO.N,+3.3V*%
X68475000Y-72025000D02*
X68900000Y-72025000D01*
X67300000Y-73200000D02*
X68475000Y-72025000D01*
X67300000Y-73300000D02*
X67300000Y-73200000D01*
X67300000Y-70675000D02*
X67825000Y-70150000D01*
X67300000Y-71600000D02*
X67300000Y-70675000D01*
%TO.N,GND*%
X68625000Y-73575000D02*
X68900000Y-73575000D01*
X67850000Y-74350000D02*
X68625000Y-73575000D01*
%TO.N,Net-(U1-PA0)*%
X65000000Y-64050000D02*
X65150000Y-64200000D01*
X65150000Y-64200000D02*
X65150000Y-64250000D01*
X65000000Y-63150000D02*
X65000000Y-64050000D01*
X64241600Y-62391600D02*
X65000000Y-63150000D01*
X64241600Y-61061500D02*
X64241600Y-62391600D01*
%TO.N,Net-(U1-PA14)*%
X57295000Y-73875000D02*
X58275000Y-73875000D01*
X57150000Y-74020000D02*
X57295000Y-73875000D01*
X57150000Y-74250000D02*
X57150000Y-74020000D01*
%TO.N,GND*%
X65511600Y-62368400D02*
X65511600Y-61061500D01*
X65700000Y-62950000D02*
X65700000Y-62556800D01*
X65700000Y-62556800D02*
X65511600Y-62368400D01*
%TO.N,Net-(U1-PA0)*%
X65700000Y-64250000D02*
X65150000Y-64250000D01*
%TO.N,Net-(J4-T_NRST)*%
X65550000Y-65500000D02*
X63900000Y-65500000D01*
X65700000Y-65650000D02*
X65550000Y-65500000D01*
X63900000Y-65500000D02*
X63875000Y-65525000D01*
%TO.N,GND*%
X52810000Y-84060000D02*
X53730000Y-84060000D01*
%TO.N,Net-(U1-PA14)*%
X52850000Y-82790000D02*
X53730000Y-82790000D01*
%TO.N,GND*%
X52850000Y-81520000D02*
X53730000Y-81520000D01*
%TO.N,Net-(U1-PA13)*%
X53730000Y-80250000D02*
X52850000Y-80250000D01*
%TO.N,Net-(U1-PA1)*%
X69000000Y-66050000D02*
X69400000Y-65650000D01*
X67650000Y-66050000D02*
X69000000Y-66050000D01*
X69400000Y-65650000D02*
X69400000Y-64875000D01*
X67325000Y-66375000D02*
X67650000Y-66050000D01*
X67325000Y-67250000D02*
X67325000Y-66375000D01*
%TO.N,Net-(U1-PA6)*%
X62102600Y-62597400D02*
X62387500Y-62312500D01*
X62452600Y-62247400D02*
X62971600Y-61728400D01*
X62102600Y-62614500D02*
X62102600Y-62597400D01*
X60675000Y-64042100D02*
X62102600Y-62614500D01*
X60675000Y-65525000D02*
X60675000Y-64042100D01*
X62971600Y-61728400D02*
X62971600Y-61061500D01*
%TO.N,Net-(U1-PA7)*%
X59875000Y-64275000D02*
X61701600Y-62448400D01*
X61701600Y-62448400D02*
X61701600Y-61061500D01*
X59875000Y-65525000D02*
X59875000Y-64275000D01*
%TO.N,+3.3V*%
X67825000Y-70450000D02*
X69400000Y-72025000D01*
X67825000Y-70150000D02*
X67825000Y-70450000D01*
%TO.N,Net-(U1-PA13)*%
X54700000Y-71950000D02*
X54700000Y-71850000D01*
X55250000Y-72500000D02*
X54700000Y-71950000D01*
X54750000Y-71900000D02*
X54750000Y-72000000D01*
X54700000Y-71850000D02*
X54750000Y-71900000D01*
X55250000Y-72500000D02*
X56900000Y-72500000D01*
%TO.N,Net-(J4-T_VCP_RX)*%
X55600000Y-71700000D02*
X54700000Y-70800000D01*
X56900000Y-71700000D02*
X55600000Y-71700000D01*
%TO.N,Net-(J4-T_VCP_TX)*%
X55800000Y-70900000D02*
X56900000Y-70900000D01*
X54700000Y-69700000D02*
X54700000Y-69800000D01*
X54700000Y-69800000D02*
X55800000Y-70900000D01*
%TO.N,+3.3V*%
X65300000Y-70150000D02*
X65250000Y-70100000D01*
X67825000Y-70150000D02*
X65300000Y-70150000D01*
X65900000Y-70100000D02*
X65250000Y-70100000D01*
%TO.N,Net-(J3-PIEZO_SIG)*%
X70500000Y-68775000D02*
X68975000Y-67250000D01*
X70500000Y-76000000D02*
X70500000Y-68775000D01*
X70250000Y-76250000D02*
X70500000Y-76000000D01*
%TO.N,Net-(J4-T_NRST)*%
X63875000Y-65525000D02*
X64070000Y-65330000D01*
%TO.N,Net-(U1-PA1)*%
X66975000Y-66900000D02*
X65250000Y-66900000D01*
X67325000Y-67250000D02*
X66975000Y-66900000D01*
%TO.N,GND*%
X55000000Y-80250000D02*
X56000000Y-80250000D01*
%TO.N,Net-(J4-T_NRST)*%
X55980000Y-78980000D02*
X56000000Y-79000000D01*
X55000000Y-78980000D02*
X55980000Y-78980000D01*
%TO.N,Net-(J4-T_VCP_RX)*%
X55960000Y-77710000D02*
X56000000Y-77750000D01*
X55000000Y-77710000D02*
X55960000Y-77710000D01*
%TO.N,Net-(J4-T_VCP_TX)*%
X55940000Y-76440000D02*
X56000000Y-76500000D01*
X55000000Y-76440000D02*
X55940000Y-76440000D01*
%TO.N,Net-(U1-PA0)*%
X66900000Y-68750000D02*
X65850000Y-67700000D01*
X67450000Y-68750000D02*
X66900000Y-68750000D01*
X65850000Y-67700000D02*
X65250000Y-67700000D01*
%TO.N,+3.3V*%
X55200000Y-73200000D02*
X54650000Y-73200000D01*
X54650000Y-73200000D02*
X53030000Y-74820000D01*
X53030000Y-74820000D02*
X53030000Y-78280000D01*
X53030000Y-78280000D02*
X53730000Y-78980000D01*
%TO.N,GND*%
X69825000Y-63325000D02*
X69400000Y-63325000D01*
X70700000Y-65195044D02*
X70700000Y-64200000D01*
X69860933Y-66034111D02*
X70700000Y-65195044D01*
X70700000Y-64200000D02*
X69825000Y-63325000D01*
%TD*%
M02*
